:SAMPLES-PER-SECOND 30
:FULLY-SPECIFIED
:DEGREES
12
root  34.79240898 36.5107679 -14.87705801 7.910549641 -1.547841668 3.323325634
lowerback  -8.151247025 -0.2254144102 -0.1947968453
upperback  -3.510699987 0.1244900003 -2.835489988
thorax  0.9460049868 0.1878812015 -2.802000046
lowerneck  -14.93859959 1.232849956 0.7597249746
upperneck  17.50530052 0.9862769842 4.495540142
head  7.858970165 1.113250017 1.492740035
lclavicle  0 -4.497500157e-015 -2.743230041e-014
lhumerus  -46.04449844 26.35140038 68.56199646
lradius  -0.0126562221 -6.507048965e-006 30.43692017
lwrist  4.824992743e-007 -3.790274832e-007 -25.74399948
lhand  -4.417273986e-031 -36.92810059 -10.69699955
lfingers  90 7.125020027 -90
lthumb  94.83392766 -25.53141127 101.1011154
rclavicle  0 -4.497500157e-015 -2.743230041e-014
rhumerus  -60.18050003 -40.32709885 -46.59320068
rradius  -5.16745672e-007 2.214343908e-008 35.95249939
rwrist  -7.499573258e-005 0.03438235447 -147.875
rhand  -1.767134617e-031 -2.416990042 -7.878280163
rfingers  -90 -7.125020027 -90
rthumb  -86.61721341 -7.811462199 -66.49557865
rfemur  -11.15239334 15.89885426 14.01799107
rtibia  -1.297029257 0.2658406794 20.86646652
rfoot  -0.1136075258 -19.74494362 -38.68942642
rtoes  4.115381154 19.589001 -102.1122392
lfemur  -7.410377502 -17.85123444 -19.81742287
ltibia  2.642844915 -0.1118122861 14.39256382
lfoot  0.5969802737 -25.15741539 35.97081757
ltoes  -8.711323146 -18.07347582 -116.2844721
13
root  34.79530755 36.51205348 -14.87827001 7.920888901 -1.614162087 3.323432922
lowerback  -8.133387566 -0.226491496 -0.2151086628
upperback  -3.514951229 0.1220126897 -2.839099884
thorax  0.9302819967 0.188394025 -2.794850111
lowerneck  -14.90600014 1.207499981 0.7284659743
upperneck  17.4741993 0.9554280043 4.516860008
head  7.843160152 1.097560048 1.500650048
lclavicle  0 -4.497500157e-015 -2.743230041e-014
lhumerus  -46.04790115 26.38549995 68.5223999
lradius  -0.0126562221 -6.507048965e-006 30.42453957
lwrist  4.824992743e-007 -3.790274832e-007 -25.77050209
lhand  -4.420116695e-031 -36.97710037 -10.6882
lfingers  90 7.125020027 -90
lthumb  94.85499689 -25.52104711 101.1526354
rclavicle  0 -4.497500157e-015 -2.743230041e-014
rhumerus  -59.90340042 -40.0503006 -46.98540115
rradius  -5.16745672e-007 2.214343908e-008 36.18629837
rwrist  -7.499573258e-005 0.03438235447 -148.1060028
rhand  -1.767201528e-031 -2.46784997 -7.832709789
rfingers  -90 -7.125020027 -90
rthumb  -86.60806753 -7.850481319 -66.54259248
rfemur  -11.17798519 15.98136234 14.00687027
rtibia  -1.296062708 0.2752602696 20.86308861
rfoot  -0.109199971 -19.706604 -38.70994949
rtoes  4.089607868 19.59419483 -102.0353759
lfemur  -7.510230541 -17.89634705 -19.7748661
ltibia  2.571380377 -0.1615432501 14.51606083
lfoot  0.5963258743 -25.1013279 36.01268387
ltoes  -8.664161074 -18.09554429 -116.132542
14
root  34.79767747 36.5126362 -14.87937687 7.926177502 -1.669415712 3.323529243
lowerback  -8.127479553 -0.2274338305 -0.2130654305
upperback  -3.519609928 0.1213258728 -2.849709988
thorax  0.9233090281 0.1892547607 -2.807679892
lowerneck  -14.8604002 1.187299967 0.719415009
upperneck  17.42569923 0.9287559986 4.528989792
head  7.819459915 1.083829999 1.501860023
lclavicle  0 -4.497500157e-015 -2.743230041e-014
lhumerus  -46.04750061 26.43959999 68.45870209
lradius  -0.0126562221 -6.507048965e-006 30.40660286
lwrist  4.824992743e-007 -3.790274832e-007 -25.84950066
lhand  -4.417297195e-031 -36.92850113 -10.7020998
lfingers  90 7.125020027 -90
lthumb  94.83520666 -25.53638232 101.1020268
rclavicle  0 -4.497500157e-015 -2.743230041e-014
rhumerus  -59.69409943 -39.83649826 -47.25550079
rradius  -5.16745672e-007 2.214343908e-008 36.46070099
rwrist  -7.499573258e-005 0.03438235447 -148.3139954
rhand  -1.767294701e-031 -2.5369699 -7.936399937
rfingers  -90 -7.125020027 -90
rthumb  -86.66210853 -7.751509935 -66.61550028
rfemur  -11.17972374 15.97304058 13.99123955
rtibia  -1.287930608 0.2551184893 20.83362579
rfoot  -0.09644369036 -19.7315712 -38.68022919
rtoes  4.110411721 19.5900051 -102.0974174
lfemur  -7.55924654 -17.85769653 -19.75115967
ltibia  2.533099174 -0.1582397819 14.5763092
lfoot  0.6066055894 -25.13987923 36.03311539
ltoes  -8.671041421 -18.09233415 -116.1546955
15
root  34.80000233 36.51308075 -14.88052578 7.93012619 -1.725007772 3.323591232
lowerback  -8.121450424 -0.2282588929 -0.2004420012
upperback  -3.523679972 0.1211587563 -2.859339952
thorax  0.9159629941 0.1902832389 -2.824790001
lowerneck  -14.83329964 1.148300052 0.6910809875
upperneck  17.40169907 0.8782950044 4.551020145
head  7.80753994 1.059440017 1.507619977
lclavicle  0 -4.497500157e-015 -2.743230041e-014
lhumerus  -46.0367012 26.39710045 68.47589874
lradius  -0.0126562221 -6.507048965e-006 30.42810059
lwrist  4.824992743e-007 -3.790274832e-007 -25.82550049
lhand  -4.415618017e-031 -36.8995018 -10.71930027
lfingers  90 7.125020027 -90
lthumb  94.82525103 -25.5543446 101.0725427
rclavicle  0 -4.497500157e-015 -2.743230041e-014
rhumerus  -59.4224968 -39.48559952 -47.68230438
rradius  -5.16745672e-007 2.214343908e-008 36.7867012
rwrist  -7.499573258e-005 0.03438235447 -148.8760071
rhand  -1.767463151e-031 -2.657360077 -8.024319649
rfingers  -90 -7.125020027 -90
rthumb  -86.71858655 -7.664238679 -66.73734032
rfemur  -11.19007397 15.96096897 13.9736414
rtibia  -1.280987024 0.2276652306 20.82179832
rfoot  -0.08552478999 -19.78238487 -38.62523651
rtoes  4.091489529 19.59381679 -102.0409869
lfemur  -7.590846062 -17.84642029 -19.7476635
ltibia  2.497331142 -0.1823284477 14.62451553
lfoot  0.5993090868 -25.11639977 36.04725647
ltoes  -8.70464505 -18.07660984 -116.2629481
